<svg width="650" height="176" viewBox="0 0 650 176" fill="none" xmlns="http://www.w3.org/2000/svg">
<path d="M37.12 134H53.12C54.272 134 55.04 133.488 55.296 132.336L72.064 78.576L88.704 132.336C89.088 133.488 89.856 134 90.88 134H106.88C108.032 134 108.8 133.488 109.184 132.464L142.208 42.352C142.72 41.072 141.952 40.048 140.544 40.048H117.888C116.736 40.048 115.968 40.56 115.584 41.712L100.096 94.576L82.432 41.712C82.048 40.56 81.28 40.048 80.256 40.048H64.384C63.232 40.048 62.464 40.56 62.08 41.712L45.696 94.448L28.928 41.712C28.672 40.56 27.776 40.048 26.624 40.048H3.584C2.048 40.048 1.408 41.072 1.92 42.352L34.944 132.464C35.2 133.488 36.096 134 37.12 134ZM289.011 134H308.467C309.747 134 310.515 133.232 310.515 131.952V107.632H320.371C321.907 107.632 323.443 107.632 324.851 107.504L336.755 132.464C337.139 133.488 337.907 134 339.059 134H360.947C362.483 134 363.251 132.976 362.483 131.568L346.867 101.36C355.699 95.6 359.795 86.128 359.795 73.84C359.795 51.696 347.635 40.048 320.371 40.048H289.011C287.731 40.048 286.963 40.816 286.963 42.096V131.952C286.963 133.232 287.731 134 289.011 134ZM319.987 60.016C329.843 60.016 335.475 63.984 335.475 73.84C335.475 83.824 329.843 87.664 319.987 87.664H310.515V60.016H319.987ZM377.636 134H412.324C442.66 134 459.94 117.232 459.94 87.024C459.94 56.56 442.66 40.048 412.324 40.048H377.636C376.356 40.048 375.588 40.816 375.588 42.096V131.952C375.588 133.232 376.356 134 377.636 134ZM410.02 62.064C426.66 62.064 435.62 70.256 435.62 87.024C435.62 103.792 426.66 111.984 410.02 111.984H399.14V62.064H410.02ZM477.636 134H540.996C542.148 134 543.044 133.232 543.044 131.952V115.44C543.044 114.16 542.148 113.392 540.996 113.392H499.268V95.984H534.724C536.004 95.984 536.772 95.216 536.772 93.936V78.064C536.772 76.784 536.004 76.016 534.724 76.016H499.268V60.656H539.46C540.612 60.656 541.508 59.888 541.508 58.608V42.096C541.508 40.816 540.612 40.048 539.46 40.048H477.636C476.356 40.048 475.588 40.816 475.588 42.096V131.952C475.588 133.232 476.356 134 477.636 134ZM558.761 134H577.577C578.857 134 579.625 133.232 579.625 131.952V76.528L613.289 132.592C613.801 133.488 614.569 134 615.721 134H636.329C637.609 134 638.377 133.232 638.377 131.952V42.096C638.377 40.816 637.609 40.048 636.329 40.048H617.513C616.233 40.048 615.465 40.816 615.465 42.096V97.264L581.929 41.456C581.289 40.56 580.649 40.048 579.497 40.048H558.761C557.481 40.048 556.713 40.816 556.713 42.096V131.952C556.713 133.232 557.481 134 558.761 134Z" fill="black"/>
<path fill-rule="evenodd" clip-rule="evenodd" d="M156 18C156 12.4771 160.477 8 166 8H256C261.523 8 266 12.4772 266 18V32H156V18ZM156 40V155C156 160.523 160.477 165 166 165H189C189 152.85 198.85 143 211 143C223.15 143 233 152.85 233 165H256C261.523 165 266 160.523 266 155V40H156Z" fill="black"/>
<rect x="243" y="50" width="12" height="62" fill="#343434"/>
<rect x="226" y="50" width="12" height="26" fill="#343434"/>
<rect x="185" y="50" width="12" height="62" fill="#1E1E1E"/>
<rect x="166" y="50" width="12" height="62" fill="#1E1E1E"/>
</svg>
