<svg width="933" height="747" viewBox="0 0 933 747" fill="none" xmlns="http://www.w3.org/2000/svg">
<g clip-path="url(#clip0_38_2)">
<path fill-rule="evenodd" clip-rule="evenodd" d="M466.667 0C367.651 0 272.693 39.3333 202.68 109.349C132.664 179.36 93.3306 274.323 93.3306 373.336C93.3306 472.349 132.664 567.309 202.68 637.323C272.691 707.339 367.653 746.672 466.667 746.672C565.68 746.672 660.64 707.339 730.653 637.323C800.669 567.312 840.003 472.349 840.003 373.336C840.003 307.805 822.752 243.424 789.987 186.669C757.216 129.915 710.091 82.7893 653.333 50.016C596.579 17.2507 532.197 0 466.667 0ZM387.24 213.333H539.64C585.187 213.333 626.645 255.427 626.619 301.667V415.573C656.165 431.256 676.567 462 676.567 497.709C676.567 549.179 634.703 591.043 583.233 591.043C544.405 591.043 511.113 567.147 497.088 533.335H387.244C340.551 533.335 306.671 500.012 306.671 454.064V301.664C306.671 252.945 342.791 213.331 387.244 213.331L387.24 213.333ZM387.24 240C353.933 240 333.333 271.984 333.333 301.667V454.067C333.333 464.759 336.141 474.217 340.885 482.192C362.115 435.927 407.937 405.203 460.469 404.536C425.057 403.151 396.615 374.099 396.615 338.339C396.615 301.699 426.38 271.932 463.021 271.932C499.663 271.932 529.48 301.749 529.48 338.391C529.48 374.339 500.709 403.521 465.001 404.588C487.532 405.067 509.209 411.307 528.595 422.452C544.007 411.223 562.803 404.379 583.283 404.379C589.017 404.379 594.564 405.061 600.001 406.045V301.671C600.001 269.963 570.652 240.004 539.637 240.004L387.24 240ZM463.021 298.593C441.1 298.593 423.281 316.411 423.281 338.333C423.281 360.256 441.099 378.125 463.021 378.125C484.944 378.125 502.813 360.256 502.813 338.333C502.813 316.411 484.944 298.593 463.021 298.593ZM462.188 430.989C416.667 430.989 377.313 459.307 361.98 501.041C369.391 504.536 377.829 506.666 387.24 506.666V506.614H490.833C490.542 503.63 489.948 500.724 489.948 497.656C489.948 476.64 497.172 457.448 508.959 441.823C494.48 434.755 478.563 430.989 462.188 430.989ZM583.281 431.041C546.511 431.041 516.615 460.963 516.615 497.708C516.615 534.453 546.511 564.375 583.281 564.375C620.052 564.375 649.948 534.453 649.948 497.708C649.948 460.937 620.052 431.041 583.281 431.041ZM583.542 453.541L631.667 487.291L616.355 509.113L596.98 495.52V537.656H570.314V495.885L552.032 509.011L536.459 487.396L583.542 453.541Z" fill="black"/>
</g>
<defs>
<clipPath id="clip0_38_2">
<rect width="933" height="747" fill="white"/>
</clipPath>
</defs>
</svg>
